<svg id="svg" version="1.1" xmlns="http://www.w3.org/2000/svg" xmlns:xlink="http://www.w3.org/1999/xlink" width="400" height="400" viewBox="0, 0, 400,400"><g id="svgg"><path id="path0" d="M151.800 60.000 C 151.664 60.220,150.393 60.400,148.976 60.400 C 147.559 60.400,146.400 60.553,146.400 60.741 C 146.400 60.928,144.645 61.205,142.500 61.355 C 140.355 61.505,138.540 61.801,138.467 62.014 C 138.393 62.226,137.628 62.400,136.767 62.400 C 135.905 62.400,135.200 62.559,135.200 62.753 C 135.200 62.948,134.032 63.232,132.604 63.385 C 131.177 63.538,129.906 63.829,129.781 64.031 C 129.655 64.234,129.113 64.400,128.576 64.400 C 128.039 64.400,127.600 64.559,127.600 64.754 C 127.600 64.949,126.610 65.232,125.400 65.383 C 124.190 65.534,123.200 65.825,123.200 66.029 C 123.200 66.233,122.750 66.400,122.200 66.400 C 121.650 66.400,121.200 66.560,121.200 66.755 C 121.200 66.950,120.390 67.231,119.400 67.379 C 118.410 67.528,117.600 67.818,117.600 68.025 C 117.600 68.231,117.150 68.400,116.600 68.400 C 116.050 68.400,115.600 68.578,115.600 68.795 C 115.600 69.013,114.880 69.306,114.000 69.446 C 113.120 69.587,112.400 69.859,112.400 70.051 C 112.400 70.243,112.130 70.400,111.800 70.400 C 111.470 70.400,111.200 70.580,111.200 70.800 C 111.200 71.020,110.885 71.201,110.500 71.202 C 110.115 71.204,109.284 71.474,108.654 71.802 C 108.024 72.131,107.259 72.400,106.954 72.400 C 106.649 72.400,106.400 72.560,106.400 72.757 C 106.400 72.953,105.927 73.232,105.349 73.377 C 104.770 73.522,103.648 74.082,102.856 74.621 C 102.063 75.159,101.186 75.600,100.907 75.600 C 100.628 75.600,100.400 75.780,100.400 76.000 C 100.400 76.220,100.130 76.400,99.800 76.400 C 99.470 76.400,99.200 76.580,99.200 76.800 C 99.200 77.020,98.862 77.200,98.449 77.200 C 98.036 77.200,97.474 77.470,97.200 77.800 C 96.926 78.130,96.454 78.400,96.151 78.400 C 95.848 78.400,95.600 78.560,95.600 78.757 C 95.600 78.953,95.150 79.226,94.600 79.364 C 94.050 79.502,93.600 79.792,93.600 80.008 C 93.600 80.223,93.330 80.400,93.000 80.400 C 92.670 80.400,92.400 80.568,92.400 80.773 C 92.400 80.978,91.995 81.274,91.500 81.430 C 91.005 81.587,90.330 82.023,90.000 82.400 C 89.670 82.777,88.995 83.213,88.500 83.370 C 88.005 83.526,87.600 83.822,87.600 84.027 C 87.600 84.232,87.396 84.400,87.146 84.400 C 86.896 84.400,86.275 84.850,85.765 85.400 C 85.255 85.950,84.662 86.400,84.448 86.400 C 84.233 86.400,83.396 87.024,82.587 87.786 C 81.779 88.549,80.785 89.278,80.379 89.407 C 79.973 89.535,79.533 89.983,79.400 90.400 C 79.267 90.817,78.785 91.278,78.328 91.423 C 77.243 91.767,63.767 105.243,63.423 106.328 C 63.278 106.785,62.817 107.267,62.400 107.400 C 61.983 107.533,61.535 107.973,61.407 108.379 C 61.278 108.785,60.549 109.779,59.786 110.587 C 59.024 111.396,58.400 112.233,58.400 112.448 C 58.400 112.662,57.950 113.255,57.400 113.765 C 56.850 114.275,56.400 114.896,56.400 115.146 C 56.400 115.396,56.232 115.600,56.027 115.600 C 55.822 115.600,55.526 116.005,55.370 116.500 C 55.213 116.995,54.777 117.670,54.400 118.000 C 54.023 118.330,53.587 119.005,53.430 119.500 C 53.274 119.995,52.978 120.400,52.773 120.400 C 52.568 120.400,52.400 120.670,52.400 121.000 C 52.400 121.330,52.223 121.600,52.008 121.600 C 51.792 121.600,51.502 122.050,51.364 122.600 C 51.226 123.150,50.953 123.600,50.757 123.600 C 50.560 123.600,50.400 123.848,50.400 124.151 C 50.400 124.454,50.130 124.926,49.800 125.200 C 49.470 125.474,49.200 126.036,49.200 126.449 C 49.200 126.862,49.020 127.200,48.800 127.200 C 48.580 127.200,48.400 127.470,48.400 127.800 C 48.400 128.130,48.220 128.400,48.000 128.400 C 47.780 128.400,47.600 128.628,47.600 128.907 C 47.600 129.186,47.159 130.063,46.621 130.856 C 46.082 131.648,45.522 132.770,45.377 133.349 C 45.232 133.927,44.953 134.400,44.757 134.400 C 44.560 134.400,44.400 134.649,44.400 134.954 C 44.400 135.259,44.131 136.024,43.802 136.654 C 43.474 137.284,43.204 138.115,43.202 138.500 C 43.201 138.885,43.020 139.200,42.800 139.200 C 42.580 139.200,42.400 139.470,42.400 139.800 C 42.400 140.130,42.243 140.400,42.051 140.400 C 41.859 140.400,41.587 141.120,41.446 142.000 C 41.306 142.880,41.013 143.600,40.795 143.600 C 40.578 143.600,40.400 144.050,40.400 144.600 C 40.400 145.150,40.231 145.600,40.025 145.600 C 39.818 145.600,39.528 146.410,39.379 147.400 C 39.231 148.390,38.950 149.200,38.755 149.200 C 38.560 149.200,38.400 149.650,38.400 150.200 C 38.400 150.750,38.237 151.200,38.038 151.200 C 37.838 151.200,37.551 152.100,37.400 153.200 C 37.249 154.299,36.962 155.300,36.763 155.423 C 36.563 155.546,36.400 156.076,36.400 156.600 C 36.400 157.124,36.234 157.655,36.031 157.781 C 35.829 157.906,35.538 159.177,35.385 160.604 C 35.232 162.032,34.948 163.200,34.753 163.200 C 34.559 163.200,34.400 163.920,34.400 164.800 C 34.400 165.680,34.236 166.400,34.036 166.400 C 33.836 166.400,33.558 167.975,33.418 169.900 C 33.278 171.825,32.992 173.713,32.782 174.095 C 32.572 174.477,32.400 175.861,32.400 177.171 C 32.400 178.481,32.220 179.664,32.000 179.800 C 31.452 180.139,31.452 206.800,32.000 206.800 C 32.231 206.800,32.400 208.067,32.400 209.800 C 32.400 211.450,32.559 212.800,32.752 212.800 C 32.946 212.800,33.233 214.510,33.390 216.600 C 33.546 218.690,33.838 220.400,34.037 220.400 C 34.237 220.400,34.400 221.120,34.400 222.000 C 34.400 222.880,34.559 223.600,34.753 223.600 C 34.948 223.600,35.232 224.770,35.385 226.200 C 35.538 227.630,35.829 228.800,36.032 228.800 C 36.234 228.800,36.400 229.239,36.400 229.776 C 36.400 230.313,36.559 230.851,36.753 230.971 C 36.948 231.091,37.230 232.182,37.382 233.395 C 37.534 234.608,37.825 235.600,38.029 235.600 C 38.233 235.600,38.400 236.050,38.400 236.600 C 38.400 237.150,38.557 237.600,38.749 237.600 C 38.941 237.600,39.213 238.320,39.354 239.200 C 39.494 240.080,39.787 240.800,40.005 240.800 C 40.222 240.800,40.400 241.250,40.400 241.800 C 40.400 242.350,40.569 242.800,40.775 242.800 C 40.982 242.800,41.272 243.610,41.421 244.600 C 41.569 245.590,41.850 246.400,42.045 246.400 C 42.240 246.400,42.400 246.670,42.400 247.000 C 42.400 247.330,42.566 247.600,42.768 247.600 C 42.971 247.600,43.254 248.136,43.398 248.791 C 43.542 249.446,44.095 250.841,44.628 251.891 C 45.161 252.941,45.597 254.025,45.598 254.300 C 45.599 254.575,45.780 254.800,46.000 254.800 C 46.220 254.800,46.400 254.993,46.400 255.229 C 46.400 255.464,46.670 255.927,47.000 256.257 C 47.330 256.587,47.600 257.204,47.600 257.629 C 47.600 258.053,47.780 258.400,48.000 258.400 C 48.220 258.400,48.400 258.670,48.400 259.000 C 48.400 259.330,48.560 259.600,48.757 259.600 C 48.953 259.600,49.216 260.009,49.341 260.508 C 49.466 261.007,49.936 261.810,50.385 262.291 C 50.833 262.773,51.200 263.450,51.200 263.796 C 51.200 264.142,51.470 264.529,51.800 264.655 C 52.130 264.782,52.400 265.207,52.400 265.600 C 52.400 265.993,52.670 266.418,53.000 266.545 C 53.330 266.671,53.600 267.128,53.600 267.560 C 53.600 267.995,53.958 268.460,54.400 268.600 C 54.842 268.740,55.200 269.205,55.200 269.640 C 55.200 270.072,55.470 270.529,55.800 270.655 C 56.130 270.782,56.400 271.145,56.400 271.462 C 56.400 271.779,56.850 272.455,57.400 272.965 C 57.950 273.475,58.400 274.019,58.400 274.174 C 58.400 274.330,58.625 274.694,58.900 274.984 C 59.175 275.274,59.760 276.017,60.200 276.636 C 60.640 277.254,61.585 278.369,62.300 279.114 C 63.015 279.859,63.600 280.619,63.600 280.802 C 63.600 281.288,77.152 294.800,77.641 294.800 C 77.868 294.800,78.627 295.401,79.327 296.135 C 80.027 296.870,81.140 297.811,81.800 298.228 C 82.460 298.645,83.235 299.304,83.523 299.693 C 83.810 300.082,84.280 300.400,84.567 300.400 C 84.853 300.400,85.418 300.839,85.821 301.376 C 86.224 301.913,86.969 302.456,87.477 302.584 C 87.985 302.711,88.400 302.992,88.400 303.208 C 88.400 303.423,88.670 303.600,89.000 303.600 C 89.330 303.600,89.600 303.768,89.600 303.973 C 89.600 304.178,90.005 304.474,90.500 304.630 C 90.995 304.787,91.670 305.223,92.000 305.600 C 92.330 305.977,93.005 306.413,93.500 306.570 C 93.995 306.726,94.400 307.022,94.400 307.227 C 94.400 307.432,94.670 307.600,95.000 307.600 C 95.330 307.600,95.600 307.760,95.600 307.957 C 95.600 308.153,96.050 308.426,96.600 308.564 C 97.150 308.702,97.600 308.992,97.600 309.208 C 97.600 309.423,97.960 309.600,98.400 309.600 C 98.840 309.600,99.200 309.760,99.200 309.957 C 99.200 310.153,99.693 310.437,100.296 310.588 C 100.899 310.740,101.484 310.988,101.596 311.141 C 102.007 311.700,103.989 312.800,104.586 312.800 C 104.924 312.800,105.200 312.938,105.200 313.106 C 105.200 313.477,108.169 314.800,109.003 314.800 C 109.331 314.800,109.600 314.980,109.600 315.200 C 109.600 315.420,109.960 315.600,110.400 315.600 C 110.840 315.600,111.200 315.778,111.200 315.995 C 111.200 316.213,111.920 316.506,112.800 316.646 C 113.680 316.787,114.400 317.059,114.400 317.251 C 114.400 317.443,114.670 317.600,115.000 317.600 C 115.330 317.600,115.600 317.760,115.600 317.955 C 115.600 318.150,116.410 318.431,117.400 318.579 C 118.390 318.728,119.200 319.018,119.200 319.225 C 119.200 319.431,119.650 319.600,120.200 319.600 C 120.750 319.600,121.200 319.763,121.200 319.962 C 121.200 320.162,122.100 320.449,123.200 320.600 C 124.300 320.751,125.200 321.038,125.200 321.238 C 125.200 321.437,125.740 321.600,126.400 321.600 C 127.060 321.600,127.600 321.771,127.600 321.980 C 127.600 322.189,128.680 322.482,130.000 322.632 C 131.320 322.781,132.400 323.060,132.400 323.252 C 132.400 323.443,133.030 323.600,133.800 323.600 C 134.570 323.600,135.200 323.761,135.200 323.958 C 135.200 324.155,136.640 324.444,138.400 324.600 C 140.160 324.756,141.600 325.045,141.600 325.242 C 141.600 325.439,142.554 325.600,143.720 325.600 C 144.886 325.600,146.065 325.825,146.340 326.100 C 146.726 326.486,151.103 326.600,165.487 326.600 C 180.049 326.600,184.170 326.490,184.300 326.100 C 184.406 325.782,185.256 325.600,186.633 325.600 C 187.825 325.600,188.800 325.441,188.800 325.247 C 188.800 325.053,190.330 324.767,192.200 324.611 C 194.070 324.456,195.600 324.164,195.600 323.964 C 195.600 323.764,196.230 323.600,197.000 323.600 C 197.770 323.600,198.400 323.441,198.400 323.246 C 198.400 323.051,199.387 322.769,200.594 322.618 C 201.800 322.467,202.891 322.177,203.017 321.972 C 203.144 321.767,203.777 321.600,204.424 321.600 C 205.071 321.600,205.600 321.437,205.600 321.238 C 205.600 321.038,206.500 320.751,207.600 320.600 C 208.700 320.449,209.600 320.162,209.600 319.962 C 209.600 319.763,210.050 319.600,210.600 319.600 C 211.150 319.600,211.600 319.422,211.600 319.205 C 211.600 318.987,212.320 318.694,213.200 318.554 C 214.080 318.413,214.800 318.141,214.800 317.949 C 214.800 317.757,215.160 317.600,215.600 317.600 C 216.040 317.600,216.400 317.443,216.400 317.251 C 216.400 317.059,217.120 316.787,218.000 316.646 C 218.880 316.506,219.600 316.213,219.600 315.995 C 219.600 315.778,219.870 315.600,220.200 315.600 C 220.530 315.600,220.800 315.420,220.800 315.200 C 220.800 314.980,221.178 314.800,221.640 314.800 C 222.425 314.800,225.156 313.711,225.600 313.221 C 225.710 313.099,226.475 312.657,227.300 312.237 C 228.125 311.817,228.800 311.342,228.800 311.182 C 228.800 311.021,229.430 310.771,230.200 310.626 C 230.970 310.482,231.600 310.192,231.600 309.982 C 231.600 309.772,231.870 309.600,232.200 309.600 C 232.530 309.600,232.800 309.423,232.800 309.208 C 232.800 308.992,233.250 308.702,233.800 308.564 C 234.350 308.426,234.800 308.153,234.800 307.957 C 234.800 307.760,235.141 307.600,235.557 307.600 C 235.974 307.600,236.418 307.330,236.545 307.000 C 236.671 306.670,237.128 306.400,237.560 306.400 C 237.995 306.400,238.460 306.042,238.600 305.600 C 238.740 305.158,239.205 304.800,239.640 304.800 C 240.072 304.800,240.529 304.530,240.655 304.200 C 240.782 303.870,241.226 303.600,241.643 303.600 C 242.059 303.600,242.400 303.416,242.400 303.190 C 242.400 302.965,242.855 302.607,243.410 302.396 C 243.966 302.185,244.525 301.739,244.653 301.406 C 245.453 299.321,245.600 303.015,245.600 325.200 L 245.600 349.600 246.600 349.600 C 247.150 349.600,247.600 349.762,247.600 349.959 C 247.600 350.157,248.860 350.445,250.400 350.600 C 251.940 350.755,253.200 351.043,253.200 351.241 C 253.200 351.438,253.920 351.600,254.800 351.600 C 255.680 351.600,256.400 351.765,256.400 351.966 C 256.400 352.167,257.750 352.458,259.400 352.613 C 261.050 352.767,262.400 353.053,262.400 353.247 C 262.400 353.441,263.030 353.600,263.800 353.600 C 264.570 353.600,265.200 353.759,265.200 353.953 C 265.200 354.147,266.550 354.433,268.200 354.587 C 269.850 354.742,271.200 355.033,271.200 355.234 C 271.200 355.435,271.729 355.600,272.376 355.600 C 273.023 355.600,273.649 355.756,273.768 355.947 C 273.886 356.139,275.246 356.419,276.791 356.572 C 278.336 356.724,279.600 357.018,279.600 357.224 C 279.600 357.431,280.500 357.600,281.600 357.600 L 283.600 357.600 283.600 284.600 L 283.600 211.600 324.200 211.600 C 360.022 211.600,364.800 211.529,364.800 211.000 C 364.800 210.670,364.980 210.400,365.200 210.400 C 365.420 210.400,365.600 209.950,365.600 209.400 C 365.600 208.850,365.771 208.400,365.980 208.400 C 366.189 208.400,366.482 207.320,366.632 206.000 C 366.781 204.680,367.060 203.600,367.252 203.600 C 367.443 203.600,367.600 203.150,367.600 202.600 C 367.600 202.050,367.762 201.600,367.961 201.600 C 368.159 201.600,368.447 200.520,368.600 199.200 C 368.753 197.880,369.041 196.800,369.239 196.800 C 369.438 196.800,369.600 196.350,369.600 195.800 C 369.600 195.250,369.759 194.800,369.954 194.800 C 370.149 194.800,370.432 193.810,370.583 192.600 C 370.734 191.390,371.025 190.400,371.229 190.400 C 371.433 190.400,371.600 189.871,371.600 189.224 C 371.600 188.577,371.763 187.946,371.963 187.823 C 372.162 187.700,372.449 186.699,372.600 185.600 C 372.751 184.500,373.038 183.600,373.238 183.600 C 373.437 183.600,373.600 183.071,373.600 182.424 C 373.600 181.777,373.763 181.146,373.963 181.023 C 374.162 180.900,374.449 179.899,374.600 178.800 C 374.751 177.700,375.038 176.800,375.238 176.800 C 375.437 176.800,375.600 176.080,375.600 175.200 L 375.600 173.600 260.400 173.600 C 145.467 173.600,145.200 173.602,145.200 174.400 C 145.200 174.840,145.020 175.200,144.800 175.200 C 144.580 175.200,144.400 175.650,144.400 176.200 C 144.400 176.750,144.233 177.200,144.029 177.200 C 143.825 177.200,143.534 178.190,143.383 179.400 C 143.232 180.610,142.949 181.600,142.754 181.600 C 142.559 181.600,142.400 182.039,142.400 182.576 C 142.400 183.113,142.241 183.651,142.047 183.771 C 141.852 183.891,141.570 184.982,141.418 186.195 C 141.266 187.408,140.975 188.400,140.771 188.400 C 140.567 188.400,140.400 188.850,140.400 189.400 C 140.400 189.950,140.243 190.400,140.052 190.400 C 139.860 190.400,139.581 191.480,139.432 192.800 C 139.282 194.120,138.989 195.200,138.780 195.200 C 138.571 195.200,138.400 195.639,138.400 196.176 C 138.400 196.713,138.237 197.254,138.037 197.377 C 137.838 197.500,137.551 198.501,137.400 199.600 C 137.249 200.700,136.962 201.600,136.762 201.600 C 136.563 201.600,136.400 202.230,136.400 203.000 C 136.400 203.770,136.237 204.400,136.038 204.400 C 135.838 204.400,135.551 205.300,135.400 206.400 C 135.249 207.500,134.962 208.400,134.762 208.400 C 134.563 208.400,134.400 209.120,134.400 210.000 L 134.400 211.600 190.000 211.600 L 245.600 211.600 245.600 231.976 C 245.600 245.295,245.740 252.439,246.005 252.603 C 246.238 252.747,245.771 253.643,244.905 254.715 C 244.077 255.739,243.044 257.032,242.608 257.588 C 241.233 259.345,230.679 269.779,228.820 271.220 C 227.841 271.979,226.467 273.095,225.767 273.700 C 225.067 274.305,224.364 274.800,224.205 274.800 C 224.046 274.800,223.350 275.253,222.658 275.806 C 220.660 277.404,220.631 277.425,220.000 277.736 C 218.984 278.236,217.712 279.010,217.143 279.473 C 216.031 280.378,213.537 281.608,213.216 281.410 C 213.033 281.297,212.776 281.485,212.645 281.828 C 212.513 282.170,212.224 282.339,212.003 282.202 C 211.781 282.065,211.600 282.122,211.600 282.330 C 211.600 282.675,210.365 283.252,209.400 283.357 C 209.180 283.380,208.781 283.670,208.513 284.000 C 208.245 284.330,208.017 284.420,208.007 284.200 C 207.995 283.951,207.877 283.960,207.694 284.222 C 207.045 285.155,203.501 286.486,203.148 285.929 C 202.881 285.509,202.811 285.523,202.806 286.002 C 202.799 286.668,200.634 287.792,200.051 287.432 C 199.849 287.307,199.573 287.494,199.437 287.848 C 199.281 288.255,198.899 288.415,198.395 288.283 C 197.958 288.168,197.600 288.238,197.600 288.437 C 197.600 288.637,197.161 288.800,196.624 288.800 C 196.087 288.800,195.526 288.996,195.378 289.235 C 195.231 289.474,194.770 289.581,194.355 289.472 C 193.940 289.364,193.600 289.417,193.600 289.591 C 193.600 290.102,192.170 290.327,191.457 289.928 C 190.972 289.657,190.800 289.723,190.800 290.180 C 190.800 290.599,190.419 290.800,189.624 290.800 C 188.977 290.800,188.325 290.997,188.176 291.238 C 188.027 291.480,187.348 291.595,186.667 291.495 C 185.917 291.385,185.207 291.536,184.865 291.878 C 184.495 292.248,183.900 292.354,183.134 292.186 C 182.438 292.033,181.731 292.125,181.382 292.415 C 181.016 292.718,180.048 292.830,178.811 292.711 C 177.586 292.593,176.772 292.685,176.683 292.951 C 176.478 293.565,154.379 293.609,154.143 292.996 C 154.034 292.710,153.117 292.613,151.586 292.724 C 149.612 292.866,149.200 292.788,149.200 292.269 C 149.200 291.749,148.999 291.712,148.028 292.050 C 147.172 292.349,146.607 292.322,145.928 291.952 C 145.418 291.673,144.523 291.492,143.940 291.549 C 143.356 291.605,142.761 291.460,142.616 291.226 C 142.471 290.992,141.834 290.800,141.200 290.800 C 140.566 290.800,139.931 290.613,139.790 290.384 C 139.648 290.155,139.202 290.072,138.798 290.201 C 138.394 290.329,137.833 290.188,137.553 289.887 C 137.272 289.587,136.628 289.420,136.121 289.517 C 135.496 289.637,135.200 289.503,135.200 289.102 C 135.200 288.687,134.902 288.568,134.200 288.702 C 133.630 288.811,133.200 288.707,133.200 288.459 C 133.200 288.220,132.953 288.120,132.652 288.236 C 132.350 288.351,131.831 288.174,131.499 287.842 C 131.167 287.510,130.790 287.343,130.662 287.471 C 130.534 287.600,129.747 287.373,128.914 286.968 C 128.081 286.562,127.308 286.224,127.196 286.215 C 126.192 286.140,123.193 284.505,123.168 284.018 C 123.148 283.625,123.065 283.578,122.939 283.887 C 122.672 284.547,119.238 282.823,119.179 282.000 C 119.150 281.583,119.075 281.553,118.934 281.903 C 118.728 282.413,113.557 279.897,113.267 279.145 C 113.193 278.955,112.880 278.800,112.570 278.800 C 112.260 278.800,111.793 278.458,111.532 278.040 C 111.271 277.622,110.819 277.371,110.529 277.483 C 110.238 277.594,110.000 277.527,110.000 277.334 C 110.000 277.140,109.370 276.643,108.600 276.228 C 107.830 275.813,107.200 275.322,107.200 275.137 C 107.200 274.952,107.000 274.800,106.755 274.800 C 105.503 274.800,92.927 263.440,89.472 259.188 C 87.677 256.981,86.475 255.508,85.193 253.947 C 84.537 253.148,84.000 252.293,84.000 252.047 C 84.000 251.801,83.859 251.600,83.686 251.600 C 83.514 251.600,83.032 251.015,82.616 250.300 C 82.201 249.585,81.757 248.910,81.630 248.800 C 81.236 248.457,80.388 247.033,80.142 246.300 C 80.012 245.915,79.786 245.600,79.638 245.600 C 79.490 245.600,78.837 244.565,78.187 243.300 C 77.536 242.035,76.893 240.910,76.756 240.800 C 76.620 240.690,76.370 240.150,76.201 239.600 C 76.033 239.050,75.547 238.106,75.122 237.503 C 74.697 236.899,74.452 236.240,74.577 236.037 C 74.702 235.834,74.669 235.608,74.502 235.534 C 73.927 235.279,72.311 231.668,72.579 231.235 C 72.726 230.996,72.701 230.800,72.521 230.800 C 72.342 230.800,71.956 230.215,71.664 229.500 C 71.372 228.785,70.947 227.812,70.719 227.338 C 70.492 226.864,70.427 226.279,70.576 226.038 C 70.725 225.797,70.657 225.600,70.424 225.600 C 70.191 225.600,70.000 225.150,70.000 224.600 C 70.000 224.050,69.820 223.600,69.600 223.600 C 69.380 223.600,69.200 223.161,69.200 222.624 C 69.200 222.087,69.003 221.525,68.762 221.376 C 68.520 221.227,68.399 220.587,68.492 219.953 C 68.585 219.319,68.513 218.800,68.331 218.800 C 68.149 218.800,68.000 218.271,68.000 217.624 C 68.000 216.977,67.800 216.324,67.556 216.173 C 67.299 216.014,67.202 215.343,67.326 214.580 C 67.482 213.616,67.373 213.198,66.918 213.024 C 66.446 212.843,66.348 212.403,66.510 211.193 C 66.639 210.233,66.561 209.600,66.314 209.600 C 66.060 209.600,65.970 208.689,66.076 207.214 C 66.189 205.659,66.091 204.767,65.796 204.654 C 65.179 204.417,65.208 182.331,65.825 182.125 C 66.088 182.037,66.184 181.074,66.077 179.592 C 65.960 177.976,66.051 177.200,66.357 177.200 C 66.658 177.200,66.727 176.684,66.562 175.655 C 66.392 174.587,66.487 173.951,66.870 173.592 C 67.204 173.280,67.363 172.543,67.269 171.737 C 67.183 171.002,67.289 170.400,67.505 170.400 C 67.720 170.400,68.020 169.311,68.171 167.979 C 68.328 166.586,68.665 165.473,68.963 165.359 C 69.271 165.241,69.406 164.763,69.294 164.180 C 69.164 163.498,69.286 163.200,69.698 163.200 C 70.113 163.200,70.232 162.902,70.098 162.200 C 69.993 161.650,70.091 161.200,70.316 161.200 C 70.541 161.200,70.632 160.842,70.517 160.405 C 70.390 159.917,70.541 159.521,70.910 159.379 C 71.256 159.246,71.431 158.839,71.321 158.419 C 71.216 158.018,71.326 157.569,71.565 157.422 C 71.804 157.274,72.001 156.848,72.002 156.476 C 72.004 156.104,72.274 155.284,72.602 154.654 C 72.931 154.024,73.200 153.259,73.200 152.954 C 73.200 152.649,73.380 152.400,73.600 152.400 C 73.820 152.400,74.000 152.130,74.000 151.800 C 74.000 151.470,74.191 151.200,74.424 151.200 C 74.657 151.200,74.752 151.045,74.635 150.856 C 74.374 150.435,75.275 148.407,75.724 148.403 C 75.902 148.401,75.935 148.219,75.798 147.997 C 75.661 147.776,75.830 147.487,76.172 147.355 C 76.515 147.224,76.695 146.954,76.572 146.755 C 76.450 146.557,76.677 145.901,77.076 145.297 C 77.476 144.694,78.146 143.525,78.565 142.700 C 78.983 141.875,79.478 141.200,79.663 141.200 C 79.848 141.200,80.000 140.957,80.000 140.660 C 80.000 140.363,80.540 139.375,81.200 138.463 C 81.860 137.552,82.400 136.665,82.400 136.492 C 82.400 136.318,82.760 135.917,83.200 135.600 C 83.640 135.283,84.000 134.801,84.000 134.530 C 84.000 134.258,84.450 133.586,85.000 133.036 C 85.550 132.486,86.000 131.933,86.000 131.806 C 86.000 130.536,102.521 114.000,103.790 114.000 C 103.925 114.000,104.486 113.550,105.036 113.000 C 105.586 112.450,106.232 112.000,106.471 112.000 C 106.710 112.000,107.200 111.685,107.559 111.300 C 108.229 110.580,109.343 109.804,110.400 109.320 C 110.730 109.169,111.238 108.810,111.529 108.522 C 111.819 108.235,112.314 108.000,112.629 108.000 C 112.943 108.000,113.200 107.848,113.200 107.663 C 113.200 107.478,113.875 106.983,114.700 106.563 C 115.525 106.143,116.290 105.710,116.400 105.600 C 116.950 105.050,118.473 104.398,118.774 104.584 C 118.962 104.700,119.224 104.515,119.355 104.172 C 119.487 103.830,119.776 103.661,119.997 103.798 C 120.219 103.935,120.400 103.878,120.400 103.670 C 120.400 103.325,121.635 102.748,122.600 102.643 C 122.820 102.620,123.090 102.502,123.200 102.381 C 123.620 101.921,127.910 100.000,128.516 100.000 C 128.866 100.000,129.274 99.804,129.422 99.565 C 129.569 99.326,130.018 99.216,130.419 99.321 C 130.839 99.431,131.246 99.256,131.379 98.910 C 131.521 98.541,131.917 98.390,132.405 98.517 C 132.842 98.632,133.200 98.541,133.200 98.316 C 133.200 98.091,133.650 97.993,134.200 98.098 C 134.902 98.232,135.200 98.113,135.200 97.698 C 135.200 97.286,135.498 97.164,136.180 97.294 C 136.756 97.404,137.240 97.272,137.355 96.973 C 137.463 96.692,138.595 96.337,139.875 96.183 C 141.154 96.028,142.425 95.721,142.701 95.501 C 142.977 95.281,143.725 95.205,144.365 95.333 C 145.209 95.502,145.594 95.392,145.771 94.931 C 145.958 94.445,146.386 94.346,147.607 94.510 C 148.539 94.635,149.200 94.559,149.200 94.326 C 149.200 94.092,150.186 93.985,151.601 94.064 C 152.971 94.142,154.059 94.028,154.134 93.800 C 154.317 93.249,176.104 93.193,176.470 93.743 C 176.618 93.966,177.725 94.103,178.929 94.047 C 180.134 93.991,181.231 94.126,181.367 94.347 C 181.505 94.570,182.258 94.643,183.067 94.512 C 184.088 94.346,184.651 94.448,184.960 94.856 C 185.203 95.175,186.028 95.427,186.800 95.418 C 187.570 95.408,188.168 95.587,188.128 95.816 C 188.085 96.063,188.615 96.168,189.428 96.073 C 190.183 95.985,190.800 96.081,190.800 96.287 C 190.800 96.493,191.319 96.585,191.953 96.492 C 192.587 96.399,193.227 96.520,193.376 96.762 C 193.525 97.003,194.087 97.200,194.624 97.200 C 195.161 97.200,195.600 97.357,195.600 97.549 C 195.600 97.741,196.328 98.014,197.217 98.156 C 198.107 98.299,199.142 98.580,199.517 98.781 C 199.893 98.983,200.785 99.383,201.500 99.671 C 202.215 99.960,202.800 100.342,202.800 100.521 C 202.800 100.701,202.996 100.726,203.235 100.579 C 203.602 100.352,206.978 101.756,207.600 102.395 C 207.710 102.508,207.980 102.602,208.200 102.604 C 208.920 102.612,211.600 104.082,211.600 104.469 C 211.600 104.677,211.800 104.724,212.045 104.572 C 212.289 104.421,212.604 104.457,212.745 104.653 C 212.885 104.848,214.035 105.523,215.300 106.152 C 216.565 106.781,217.600 107.433,217.600 107.601 C 217.600 107.769,217.915 108.012,218.300 108.142 C 219.101 108.411,220.315 109.170,221.112 109.900 C 221.412 110.175,221.875 110.400,222.140 110.400 C 222.406 110.400,222.883 110.760,223.200 111.200 C 223.517 111.640,223.937 112.000,224.133 112.000 C 224.480 112.000,226.300 113.365,228.145 115.008 C 228.644 115.452,229.849 116.442,230.824 117.208 C 233.205 119.079,240.565 126.553,242.800 129.369 C 243.790 130.617,245.095 132.238,245.700 132.972 C 246.305 133.705,246.800 134.507,246.800 134.753 C 246.800 134.999,246.941 135.200,247.114 135.200 C 247.286 135.200,247.768 135.785,248.184 136.500 C 248.599 137.215,249.043 137.890,249.170 138.000 C 249.564 138.343,250.412 139.767,250.658 140.500 C 250.788 140.885,251.030 141.200,251.198 141.200 C 251.366 141.200,251.727 141.740,252.000 142.400 L 252.497 143.600 271.049 143.600 C 287.272 143.600,289.600 143.525,289.600 143.000 C 289.600 142.670,289.443 142.400,289.251 142.400 C 289.059 142.400,288.787 141.680,288.646 140.800 C 288.506 139.920,288.213 139.200,287.995 139.200 C 287.778 139.200,287.600 138.840,287.600 138.400 C 287.600 137.960,287.440 137.600,287.243 137.600 C 287.047 137.600,286.767 137.105,286.621 136.500 C 286.235 134.902,285.452 133.200,285.102 133.200 C 284.936 133.200,284.800 132.924,284.800 132.586 C 284.800 131.989,283.700 130.007,283.141 129.596 C 282.988 129.484,282.740 128.899,282.588 128.296 C 282.437 127.693,282.153 127.200,281.957 127.200 C 281.760 127.200,281.600 126.840,281.600 126.400 C 281.600 125.960,281.423 125.600,281.208 125.600 C 280.992 125.600,280.702 125.150,280.564 124.600 C 280.426 124.050,280.153 123.600,279.957 123.600 C 279.760 123.600,279.600 123.330,279.600 123.000 C 279.600 122.670,279.432 122.400,279.227 122.400 C 279.022 122.400,278.726 121.995,278.570 121.500 C 278.413 121.005,277.977 120.330,277.600 120.000 C 277.223 119.670,276.787 118.995,276.630 118.500 C 276.474 118.005,276.178 117.600,275.973 117.600 C 275.768 117.600,275.600 117.330,275.600 117.000 C 275.600 116.670,275.423 116.400,275.208 116.400 C 274.992 116.400,274.711 115.985,274.584 115.477 C 274.456 114.969,273.913 114.224,273.376 113.821 C 272.839 113.418,272.400 112.853,272.400 112.567 C 272.400 112.280,272.082 111.810,271.693 111.523 C 271.304 111.235,270.645 110.460,270.228 109.800 C 269.811 109.140,268.870 108.027,268.135 107.327 C 267.401 106.627,266.800 105.870,266.800 105.645 C 266.800 105.173,253.710 92.000,253.241 92.000 C 253.070 92.000,252.215 91.325,251.341 90.500 C 250.466 89.675,249.247 88.640,248.631 88.200 C 248.015 87.760,247.274 87.175,246.984 86.900 C 246.694 86.625,246.330 86.400,246.174 86.400 C 246.019 86.400,245.475 85.950,244.965 85.400 C 244.455 84.850,243.779 84.400,243.462 84.400 C 243.145 84.400,242.782 84.130,242.655 83.800 C 242.529 83.470,242.072 83.200,241.640 83.200 C 241.205 83.200,240.740 82.842,240.600 82.400 C 240.460 81.958,239.995 81.600,239.560 81.600 C 239.128 81.600,238.671 81.330,238.545 81.000 C 238.418 80.670,237.993 80.400,237.600 80.400 C 237.207 80.400,236.782 80.130,236.655 79.800 C 236.529 79.470,236.142 79.200,235.796 79.200 C 235.450 79.200,234.773 78.833,234.291 78.385 C 233.810 77.936,233.007 77.466,232.508 77.341 C 232.009 77.216,231.600 76.953,231.600 76.757 C 231.600 76.560,231.330 76.400,231.000 76.400 C 230.670 76.400,230.400 76.220,230.400 76.000 C 230.400 75.780,230.053 75.600,229.629 75.600 C 229.204 75.600,228.587 75.330,228.257 75.000 C 227.927 74.670,227.464 74.400,227.229 74.400 C 226.993 74.400,226.800 74.220,226.800 74.000 C 226.800 73.780,226.575 73.599,226.300 73.598 C 226.025 73.597,224.941 73.161,223.891 72.628 C 222.841 72.095,221.446 71.542,220.791 71.398 C 220.136 71.254,219.600 70.971,219.600 70.768 C 219.600 70.566,219.330 70.400,219.000 70.400 C 218.670 70.400,218.400 70.240,218.400 70.045 C 218.400 69.850,217.590 69.569,216.600 69.421 C 215.610 69.272,214.800 68.982,214.800 68.775 C 214.800 68.569,214.350 68.400,213.800 68.400 C 213.250 68.400,212.800 68.222,212.800 68.005 C 212.800 67.787,212.080 67.494,211.200 67.354 C 210.320 67.213,209.600 66.941,209.600 66.749 C 209.600 66.557,209.150 66.400,208.600 66.400 C 208.050 66.400,207.600 66.229,207.600 66.020 C 207.600 65.811,206.520 65.518,205.200 65.368 C 203.880 65.219,202.800 64.940,202.800 64.748 C 202.800 64.557,202.350 64.400,201.800 64.400 C 201.250 64.400,200.800 64.234,200.800 64.032 C 200.800 63.829,199.630 63.538,198.200 63.385 C 196.770 63.232,195.600 62.948,195.600 62.753 C 195.600 62.559,194.880 62.400,194.000 62.400 C 193.120 62.400,192.400 62.234,192.400 62.032 C 192.400 61.830,190.600 61.537,188.400 61.381 C 186.200 61.225,184.400 60.940,184.400 60.748 C 184.400 60.557,183.140 60.400,181.600 60.400 C 180.000 60.400,178.800 60.229,178.800 60.000 C 178.800 59.741,174.075 59.600,165.424 59.600 C 156.937 59.600,151.957 59.746,151.800 60.000 " stroke="none" fill="#fcfcfc" fill-rule="evenodd"></path><path id="path1" d="M155.400 94.000 C 155.699 94.483,161.075 94.483,162.200 94.000 C 162.723 93.775,161.641 93.646,159.076 93.628 C 156.556 93.610,155.241 93.743,155.400 94.000 M168.600 94.000 C 169.736 94.488,175.200 94.488,175.200 94.000 C 175.200 93.760,173.719 93.611,171.500 93.628 C 169.061 93.647,168.073 93.773,168.600 94.000 M150.400 94.400 C 149.971 94.677,150.369 94.781,151.800 94.766 C 153.282 94.749,153.593 94.655,153.000 94.400 C 151.919 93.936,151.119 93.936,150.400 94.400 M177.800 94.400 C 177.207 94.655,177.518 94.749,179.000 94.766 C 180.431 94.781,180.829 94.677,180.400 94.400 C 179.681 93.936,178.881 93.936,177.800 94.400 M146.400 95.200 C 146.400 95.420,146.940 95.600,147.600 95.600 C 148.260 95.600,148.800 95.420,148.800 95.200 C 148.800 94.980,148.260 94.800,147.600 94.800 C 146.940 94.800,146.400 94.980,146.400 95.200 M181.600 95.200 C 181.600 95.420,182.230 95.600,183.000 95.600 C 183.770 95.600,184.400 95.420,184.400 95.200 C 184.400 94.980,183.770 94.800,183.000 94.800 C 182.230 94.800,181.600 94.980,181.600 95.200 M143.200 96.000 C 143.200 96.220,143.560 96.400,144.000 96.400 C 144.440 96.400,144.800 96.220,144.800 96.000 C 144.800 95.780,144.440 95.600,144.000 95.600 C 143.560 95.600,143.200 95.780,143.200 96.000 M185.600 96.000 C 185.600 96.220,186.050 96.400,186.600 96.400 C 187.150 96.400,187.600 96.220,187.600 96.000 C 187.600 95.780,187.150 95.600,186.600 95.600 C 186.050 95.600,185.600 95.780,185.600 96.000 M140.600 96.400 C 140.457 96.631,140.828 96.797,141.476 96.794 C 142.349 96.789,142.466 96.701,142.000 96.400 C 141.231 95.903,140.907 95.903,140.600 96.400 M188.600 96.400 C 188.459 96.628,188.804 96.800,189.400 96.800 C 189.996 96.800,190.341 96.628,190.200 96.400 C 190.064 96.180,189.704 96.000,189.400 96.000 C 189.096 96.000,188.736 96.180,188.600 96.400 M138.000 97.200 C 138.000 97.420,138.360 97.600,138.800 97.600 C 139.240 97.600,139.600 97.420,139.600 97.200 C 139.600 96.980,139.240 96.800,138.800 96.800 C 138.360 96.800,138.000 96.980,138.000 97.200 M191.200 97.200 C 191.200 97.420,191.560 97.600,192.000 97.600 C 192.440 97.600,192.800 97.420,192.800 97.200 C 192.800 96.980,192.440 96.800,192.000 96.800 C 191.560 96.800,191.200 96.980,191.200 97.200 M135.600 98.000 C 135.600 98.220,135.949 98.400,136.376 98.400 C 136.803 98.400,137.264 98.220,137.400 98.000 C 137.540 97.773,137.204 97.600,136.624 97.600 C 136.061 97.600,135.600 97.780,135.600 98.000 M193.400 98.000 C 193.536 98.220,193.997 98.400,194.424 98.400 C 194.851 98.400,195.200 98.220,195.200 98.000 C 195.200 97.780,194.739 97.600,194.176 97.600 C 193.596 97.600,193.260 97.773,193.400 98.000 M195.800 98.400 C 195.664 98.620,195.934 98.800,196.400 98.800 C 196.866 98.800,197.136 98.620,197.000 98.400 C 196.864 98.180,196.594 98.000,196.400 98.000 C 196.206 98.000,195.936 98.180,195.800 98.400 M131.600 99.200 C 131.600 99.420,131.870 99.600,132.200 99.600 C 132.530 99.600,132.800 99.420,132.800 99.200 C 132.800 98.980,132.530 98.800,132.200 98.800 C 131.870 98.800,131.600 98.980,131.600 99.200 M197.600 99.200 C 197.600 99.420,197.960 99.600,198.400 99.600 C 198.840 99.600,199.200 99.420,199.200 99.200 C 199.200 98.980,198.840 98.800,198.400 98.800 C 197.960 98.800,197.600 98.980,197.600 99.200 M199.600 100.000 C 199.600 100.220,199.870 100.400,200.200 100.400 C 200.530 100.400,200.800 100.220,200.800 100.000 C 200.800 99.780,200.530 99.600,200.200 99.600 C 199.870 99.600,199.600 99.780,199.600 100.000 M124.800 102.000 C 124.800 102.220,124.500 102.400,124.133 102.400 C 123.767 102.400,123.558 102.491,123.669 102.603 C 123.986 102.919,126.400 102.342,126.400 101.950 C 126.400 101.758,126.040 101.600,125.600 101.600 C 125.160 101.600,124.800 101.780,124.800 102.000 M204.400 101.968 C 204.400 102.402,206.748 102.985,207.095 102.638 C 207.226 102.507,206.943 102.400,206.467 102.400 C 205.990 102.400,205.600 102.220,205.600 102.000 C 205.600 101.780,205.330 101.600,205.000 101.600 C 204.670 101.600,204.400 101.766,204.400 101.968 M118.000 105.200 C 118.000 105.420,117.752 105.600,117.449 105.600 C 117.146 105.600,116.652 105.896,116.352 106.258 C 115.863 106.847,115.911 106.883,116.803 106.609 C 118.416 106.113,119.574 104.800,118.400 104.800 C 118.180 104.800,118.000 104.980,118.000 105.200 M211.600 105.137 C 211.600 105.595,214.308 107.026,214.607 106.726 C 214.738 106.595,214.296 106.244,213.623 105.946 C 212.950 105.648,212.400 105.269,212.400 105.102 C 212.400 104.936,212.220 104.800,212.000 104.800 C 211.780 104.800,211.600 104.952,211.600 105.137 M113.200 108.200 C 112.659 108.851,112.789 108.933,113.767 108.557 C 114.115 108.424,114.400 108.154,114.400 107.957 C 114.400 107.404,113.752 107.535,113.200 108.200 M216.400 107.957 C 216.400 108.154,216.685 108.424,217.033 108.557 C 218.011 108.933,218.141 108.851,217.600 108.200 C 217.048 107.535,216.400 107.404,216.400 107.957 M111.600 109.157 C 111.600 109.353,111.150 109.626,110.600 109.764 C 110.050 109.902,109.600 110.192,109.600 110.408 C 109.600 110.956,109.904 110.902,111.238 110.114 C 112.395 109.430,112.761 108.800,112.000 108.800 C 111.780 108.800,111.600 108.960,111.600 109.157 M218.400 109.114 C 218.400 109.422,220.494 110.800,220.962 110.800 C 221.659 110.800,221.056 109.979,220.200 109.764 C 219.650 109.626,219.200 109.353,219.200 109.157 C 219.200 108.960,219.020 108.800,218.800 108.800 C 218.580 108.800,218.400 108.941,218.400 109.114 M107.608 111.824 C 107.063 112.361,106.825 112.800,107.080 112.800 C 107.634 112.800,108.800 111.696,108.800 111.171 C 108.800 110.673,108.751 110.699,107.608 111.824 M221.600 111.053 C 221.600 111.447,223.271 112.800,223.757 112.800 C 223.996 112.800,223.707 112.350,223.113 111.800 C 222.030 110.796,221.600 110.583,221.600 111.053 M104.800 113.800 C 104.283 114.350,104.044 114.800,104.269 114.800 C 104.735 114.800,106.400 113.435,106.400 113.053 C 106.400 112.515,105.700 112.842,104.800 113.800 M224.400 113.017 C 224.400 113.423,225.991 114.943,226.198 114.735 C 226.312 114.621,226.068 114.139,225.656 113.664 C 224.937 112.835,224.400 112.558,224.400 113.017 M101.980 115.919 C 100.860 117.107,100.245 118.000,100.548 118.000 C 100.846 118.000,103.600 115.341,103.600 115.053 C 103.600 114.534,102.969 114.871,101.980 115.919 M227.200 115.122 C 227.200 115.368,227.478 115.801,227.819 116.084 C 228.159 116.368,228.879 117.048,229.419 117.596 C 230.528 118.721,230.783 118.137,229.697 116.961 C 228.396 115.553,227.200 114.673,227.200 115.122 M231.200 118.589 C 231.200 119.016,240.110 127.624,240.327 127.407 C 240.463 127.270,238.691 125.283,236.388 122.992 C 232.685 119.308,231.200 118.048,231.200 118.589 M94.636 122.636 C 92.509 124.763,90.840 126.574,90.927 126.661 C 91.268 127.002,92.382 126.286,92.605 125.584 C 92.735 125.175,93.183 124.733,93.600 124.600 C 94.017 124.467,94.467 124.017,94.600 123.600 C 94.733 123.183,95.183 122.733,95.600 122.600 C 96.017 122.467,96.467 122.017,96.600 121.600 C 96.733 121.183,97.175 120.735,97.584 120.605 C 98.286 120.382,99.002 119.268,98.661 118.927 C 98.574 118.840,96.763 120.509,94.636 122.636 M88.167 129.805 C 87.348 130.578,86.792 131.326,86.933 131.467 C 87.159 131.693,90.000 129.011,90.000 128.572 C 90.000 128.188,89.586 128.467,88.167 129.805 M241.200 129.184 C 241.200 129.396,241.476 129.801,241.814 130.084 C 242.152 130.368,242.692 130.838,243.014 131.129 C 243.986 132.005,243.672 130.994,242.619 129.858 C 241.580 128.737,241.200 128.557,241.200 129.184 M85.601 132.998 C 85.086 133.548,84.783 134.116,84.929 134.263 C 85.212 134.545,86.800 132.911,86.800 132.339 C 86.800 131.818,86.616 131.919,85.601 132.998 M243.600 132.218 C 243.600 132.632,245.516 134.351,245.733 134.133 C 245.853 134.013,245.521 133.484,244.994 132.958 C 244.058 132.022,243.600 131.779,243.600 132.218 M84.119 135.290 C 83.272 136.384,83.153 136.793,83.748 136.564 C 84.333 136.340,84.960 135.226,84.666 134.933 C 84.583 134.849,84.336 135.010,84.119 135.290 M245.600 135.020 C 245.600 135.321,247.187 136.800,247.510 136.800 C 247.613 136.800,247.435 136.405,247.115 135.922 C 246.528 135.039,245.600 134.486,245.600 135.020 M81.843 138.233 C 81.693 138.623,81.782 138.806,82.075 138.708 C 82.673 138.509,83.002 137.600,82.476 137.600 C 82.261 137.600,81.976 137.885,81.843 138.233 M247.600 137.957 C 247.600 138.154,247.885 138.424,248.233 138.557 C 249.211 138.933,249.341 138.851,248.800 138.200 C 248.248 137.535,247.600 137.404,247.600 137.957 M80.377 140.700 C 80.074 141.305,79.760 141.935,79.680 142.100 C 79.599 142.265,79.725 142.400,79.959 142.400 C 80.193 142.400,80.498 141.950,80.636 141.400 C 80.774 140.850,81.047 140.400,81.243 140.400 C 81.440 140.400,81.600 140.220,81.600 140.000 C 81.600 139.225,80.922 139.613,80.377 140.700 M249.426 140.481 C 249.773 141.576,250.747 142.586,251.107 142.226 C 251.256 142.078,251.181 141.831,250.942 141.678 C 250.703 141.525,250.381 140.995,250.227 140.500 C 250.072 140.005,249.766 139.600,249.546 139.600 C 249.316 139.600,249.265 139.974,249.426 140.481 M78.100 144.623 C 77.825 144.922,77.600 145.354,77.600 145.583 C 77.600 145.812,77.420 146.000,77.200 146.000 C 76.980 146.000,76.800 146.180,76.800 146.400 C 76.800 147.175,77.436 146.786,78.153 145.572 C 78.936 144.247,78.908 143.747,78.100 144.623 M74.400 152.133 C 74.400 152.500,74.220 152.800,74.000 152.800 C 73.780 152.800,73.600 153.160,73.600 153.600 C 73.600 154.040,73.420 154.400,73.200 154.400 C 72.980 154.400,72.800 154.670,72.800 155.000 C 72.800 155.330,72.980 155.600,73.200 155.600 C 73.420 155.600,73.600 155.330,73.600 155.000 C 73.600 154.670,73.758 154.400,73.950 154.400 C 74.342 154.400,74.919 151.986,74.603 151.669 C 74.491 151.558,74.400 151.767,74.400 152.133 M70.800 160.200 C 70.800 160.530,70.980 160.800,71.200 160.800 C 71.420 160.800,71.600 160.530,71.600 160.200 C 71.600 159.870,71.420 159.600,71.200 159.600 C 70.980 159.600,70.800 159.870,70.800 160.200 M69.600 164.200 C 69.600 164.530,69.780 164.800,70.000 164.800 C 70.220 164.800,70.400 164.530,70.400 164.200 C 70.400 163.870,70.220 163.600,70.000 163.600 C 69.780 163.600,69.600 163.870,69.600 164.200 M68.800 166.800 C 68.800 167.240,68.980 167.600,69.200 167.600 C 69.420 167.600,69.600 167.240,69.600 166.800 C 69.600 166.360,69.420 166.000,69.200 166.000 C 68.980 166.000,68.800 166.360,68.800 166.800 M68.202 168.797 C 68.067 169.015,68.141 169.510,68.366 169.897 C 68.717 170.500,68.777 170.444,68.788 169.500 C 68.801 168.350,68.616 168.128,68.202 168.797 M67.867 171.067 C 67.452 171.482,67.553 172.800,68.000 172.800 C 68.220 172.800,68.400 172.350,68.400 171.800 C 68.400 170.753,68.308 170.626,67.867 171.067 M66.800 175.600 C 66.800 176.260,66.980 176.800,67.200 176.800 C 67.420 176.800,67.600 176.260,67.600 175.600 C 67.600 174.940,67.420 174.400,67.200 174.400 C 66.980 174.400,66.800 174.940,66.800 175.600 M66.187 178.909 C 66.061 179.410,66.137 180.265,66.354 180.809 C 66.700 181.678,66.752 181.565,66.775 179.900 C 66.802 177.858,66.555 177.442,66.187 178.909 M65.600 186.424 C 65.600 188.471,65.746 189.557,66.000 189.400 C 66.220 189.264,66.400 187.813,66.400 186.176 C 66.400 184.459,66.231 183.200,66.000 183.200 C 65.766 183.200,65.600 184.541,65.600 186.424 M65.606 199.700 C 65.603 201.771,65.763 203.200,66.000 203.200 C 66.517 203.200,66.517 197.600,66.000 196.800 C 65.733 196.387,65.610 197.293,65.606 199.700 M66.203 206.385 C 66.060 207.036,66.130 207.891,66.359 208.285 C 66.690 208.854,66.778 208.611,66.788 207.100 C 66.802 204.931,66.582 204.662,66.203 206.385 M66.800 211.000 C 66.800 211.770,66.980 212.400,67.200 212.400 C 67.420 212.400,67.600 211.770,67.600 211.000 C 67.600 210.230,67.420 209.600,67.200 209.600 C 66.980 209.600,66.800 210.230,66.800 211.000 M67.600 214.600 C 67.600 215.150,67.780 215.600,68.000 215.600 C 68.220 215.600,68.400 215.150,68.400 214.600 C 68.400 214.050,68.220 213.600,68.000 213.600 C 67.780 213.600,67.600 214.050,67.600 214.600 M68.230 217.067 C 68.089 217.434,68.160 217.920,68.387 218.147 C 68.671 218.431,68.800 218.223,68.800 217.480 C 68.800 216.246,68.600 216.101,68.230 217.067 M68.800 220.000 C 68.800 220.440,68.980 220.800,69.200 220.800 C 69.420 220.800,69.600 220.440,69.600 220.000 C 69.600 219.560,69.420 219.200,69.200 219.200 C 68.980 219.200,68.800 219.560,68.800 220.000 M69.600 222.400 C 69.600 222.840,69.780 223.200,70.000 223.200 C 70.220 223.200,70.400 222.840,70.400 222.400 C 70.400 221.960,70.220 221.600,70.000 221.600 C 69.780 221.600,69.600 221.960,69.600 222.400 M70.178 224.035 C 70.031 224.274,70.110 224.670,70.355 224.915 C 70.682 225.242,70.800 225.126,70.800 224.480 C 70.800 223.514,70.592 223.365,70.178 224.035 M70.800 226.400 C 70.800 226.840,70.980 227.200,71.200 227.200 C 71.420 227.200,71.600 226.840,71.600 226.400 C 71.600 225.960,71.420 225.600,71.200 225.600 C 70.980 225.600,70.800 225.960,70.800 226.400 M71.600 228.200 C 71.600 228.530,71.780 228.800,72.000 228.800 C 72.220 228.800,72.400 228.530,72.400 228.200 C 72.400 227.870,72.220 227.600,72.000 227.600 C 71.780 227.600,71.600 227.870,71.600 228.200 M73.600 233.000 C 73.600 233.330,73.780 233.600,74.000 233.600 C 74.220 233.600,74.400 233.990,74.400 234.467 C 74.400 234.943,74.507 235.226,74.638 235.095 C 74.985 234.748,74.402 232.400,73.968 232.400 C 73.766 232.400,73.600 232.670,73.600 233.000 M76.800 240.000 C 76.800 240.220,76.936 240.400,77.102 240.400 C 77.269 240.400,77.648 240.950,77.946 241.623 C 78.244 242.296,78.587 242.747,78.708 242.625 C 78.984 242.350,77.530 239.600,77.109 239.600 C 76.939 239.600,76.800 239.780,76.800 240.000 M79.600 244.629 C 79.600 244.754,79.870 245.127,80.200 245.457 C 80.851 246.108,80.933 246.011,80.557 245.033 C 80.329 244.438,79.600 244.130,79.600 244.629 M81.606 247.900 C 81.617 248.447,82.353 249.381,82.588 249.146 C 82.903 248.831,82.401 247.600,81.957 247.600 C 81.761 247.600,81.603 247.735,81.606 247.900 M83.600 250.751 C 83.600 250.944,83.870 251.326,84.200 251.600 C 84.851 252.141,84.933 252.011,84.557 251.033 C 84.300 250.363,83.600 250.157,83.600 250.751 M84.800 252.617 C 84.800 253.099,86.411 254.522,86.667 254.267 C 86.818 254.115,86.557 253.633,86.088 253.196 C 85.236 252.402,84.800 252.206,84.800 252.617 M245.200 252.749 C 245.200 252.968,244.840 253.260,244.400 253.400 C 243.617 253.649,243.270 254.400,243.939 254.400 C 244.609 254.400,246.044 252.874,245.620 252.612 C 245.389 252.470,245.200 252.531,245.200 252.749 M87.192 255.700 C 87.424 255.975,87.973 256.634,88.410 257.164 C 88.847 257.694,89.315 258.018,89.450 257.883 C 89.585 257.748,89.449 257.366,89.148 257.033 C 88.846 256.700,88.368 256.152,88.084 255.814 C 87.801 255.476,87.388 255.200,87.168 255.200 C 86.914 255.200,86.923 255.382,87.192 255.700 M242.218 256.218 C 240.999 257.437,240.839 258.450,242.037 257.366 C 242.889 256.595,243.788 255.200,243.432 255.200 C 243.325 255.200,242.778 255.658,242.218 256.218 M90.626 259.700 C 90.966 260.548,98.794 268.230,98.797 267.720 C 98.800 267.291,91.008 259.200,90.593 259.200 C 90.501 259.200,90.515 259.425,90.626 259.700 M235.820 263.352 C 233.520 265.636,231.745 267.611,231.875 267.742 C 232.135 268.001,239.870 260.513,240.183 259.700 C 240.550 258.746,239.981 259.222,235.820 263.352 M100.400 268.753 C 100.400 269.261,102.749 271.600,103.259 271.600 C 103.478 271.600,103.419 271.336,103.129 271.014 C 101.305 268.992,100.400 268.242,100.400 268.753 M228.675 269.807 C 227.864 270.572,227.200 271.295,227.200 271.413 C 227.200 271.809,228.589 270.885,229.568 269.838 C 231.048 268.256,230.345 268.232,228.675 269.807 M104.000 271.818 C 104.000 272.232,105.916 273.951,106.133 273.733 C 106.253 273.613,105.921 273.084,105.394 272.558 C 104.458 271.622,104.000 271.379,104.000 271.818 M225.400 272.400 C 225.260 272.840,224.968 273.200,224.749 273.200 C 224.531 273.200,224.470 273.389,224.612 273.620 C 224.874 274.044,226.400 272.609,226.400 271.939 C 226.400 271.270,225.649 271.617,225.400 272.400 M106.800 273.951 C 106.800 274.453,107.974 275.360,108.257 275.076 C 108.388 274.945,108.217 274.560,107.876 274.219 C 107.181 273.524,106.800 273.429,106.800 273.951 M222.860 274.242 C 222.131 275.066,222.600 275.457,223.381 274.676 C 223.721 274.336,224.000 273.954,224.000 273.829 C 224.000 273.409,223.406 273.624,222.860 274.242 M109.600 275.829 C 109.600 276.207,110.714 277.200,111.138 277.200 C 111.355 277.200,111.614 277.425,111.712 277.700 C 111.810 277.975,112.049 278.051,112.242 277.870 C 112.439 277.685,112.295 277.373,111.916 277.161 C 111.544 276.953,110.973 276.516,110.648 276.191 C 110.038 275.581,109.600 275.429,109.600 275.829 M220.106 276.192 C 219.834 276.501,219.296 276.931,218.909 277.147 C 218.516 277.367,218.362 277.685,218.558 277.870 C 218.751 278.051,218.990 277.975,219.088 277.700 C 219.186 277.425,219.445 277.200,219.662 277.200 C 220.086 277.200,221.200 276.207,221.200 275.829 C 221.200 275.421,220.613 275.616,220.106 276.192 M112.800 277.829 C 112.800 278.253,114.036 279.297,114.267 279.067 C 114.392 278.941,114.217 278.560,113.876 278.219 C 113.241 277.584,112.800 277.424,112.800 277.829 M216.860 278.242 C 216.131 279.066,216.600 279.457,217.381 278.676 C 217.721 278.336,218.000 277.954,218.000 277.829 C 218.000 277.409,217.406 277.624,216.860 278.242 M114.800 279.546 C 114.800 279.766,115.205 280.072,115.700 280.227 C 116.195 280.381,116.690 280.619,116.800 280.754 C 117.323 281.397,118.884 282.052,118.720 281.559 C 118.628 281.283,118.203 280.864,117.776 280.629 C 117.349 280.393,116.910 280.089,116.800 279.954 C 116.410 279.475,114.800 279.146,114.800 279.546 M213.600 279.907 C 213.600 280.076,213.127 280.502,212.549 280.852 C 211.880 281.258,211.662 281.591,211.949 281.769 C 212.197 281.922,212.400 281.857,212.400 281.624 C 212.400 281.391,212.683 281.200,213.029 281.200 C 213.635 281.200,214.800 280.298,214.800 279.829 C 214.800 279.703,214.530 279.600,214.200 279.600 C 213.870 279.600,213.600 279.738,213.600 279.907 M123.600 284.000 C 123.600 284.220,123.870 284.400,124.200 284.400 C 124.530 284.400,124.800 284.580,124.800 284.800 C 124.800 285.020,125.124 285.200,125.520 285.200 C 125.916 285.200,126.436 285.396,126.675 285.635 C 126.988 285.948,127.185 285.948,127.378 285.635 C 127.528 285.393,127.371 285.200,127.024 285.200 C 126.681 285.200,126.400 285.020,126.400 284.800 C 126.400 284.580,126.040 284.400,125.600 284.400 C 125.160 284.400,124.800 284.220,124.800 284.000 C 124.800 283.780,124.530 283.600,124.200 283.600 C 123.870 283.600,123.600 283.780,123.600 284.000 M205.600 284.000 C 205.600 284.220,205.330 284.400,205.000 284.400 C 204.670 284.400,204.400 284.580,204.400 284.800 C 204.400 285.020,204.670 285.200,205.000 285.200 C 205.330 285.200,205.600 285.020,205.600 284.800 C 205.600 284.580,205.960 284.400,206.400 284.400 C 206.840 284.400,207.200 284.220,207.200 284.000 C 207.200 283.780,206.840 283.600,206.400 283.600 C 205.960 283.600,205.600 283.780,205.600 284.000 M128.000 286.000 C 128.000 286.220,128.360 286.400,128.800 286.400 C 129.240 286.400,129.600 286.220,129.600 286.000 C 129.600 285.780,129.240 285.600,128.800 285.600 C 128.360 285.600,128.000 285.780,128.000 286.000 M201.200 286.000 C 201.200 286.220,201.470 286.400,201.800 286.400 C 202.130 286.400,202.400 286.220,202.400 286.000 C 202.400 285.780,202.130 285.600,201.800 285.600 C 201.470 285.600,201.200 285.780,201.200 286.000 M199.600 286.800 C 199.600 287.020,199.870 287.200,200.200 287.200 C 200.530 287.200,200.800 287.020,200.800 286.800 C 200.800 286.580,200.530 286.400,200.200 286.400 C 199.870 286.400,199.600 286.580,199.600 286.800 M197.920 287.680 C 198.293 288.053,198.507 288.053,198.880 287.680 C 199.253 287.307,199.147 287.200,198.400 287.200 C 197.653 287.200,197.547 287.307,197.920 287.680 M133.600 288.000 C 133.600 288.220,133.870 288.400,134.200 288.400 C 134.530 288.400,134.800 288.220,134.800 288.000 C 134.800 287.780,134.530 287.600,134.200 287.600 C 133.870 287.600,133.600 287.780,133.600 288.000 M195.600 288.000 C 195.600 288.220,195.960 288.400,196.400 288.400 C 196.840 288.400,197.200 288.220,197.200 288.000 C 197.200 287.780,196.840 287.600,196.400 287.600 C 195.960 287.600,195.600 287.780,195.600 288.000 M135.600 288.800 C 135.600 289.020,136.050 289.200,136.600 289.200 C 137.150 289.200,137.600 289.020,137.600 288.800 C 137.600 288.580,137.150 288.400,136.600 288.400 C 136.050 288.400,135.600 288.580,135.600 288.800 M193.200 288.800 C 193.200 289.020,193.650 289.200,194.200 289.200 C 194.750 289.200,195.200 289.020,195.200 288.800 C 195.200 288.580,194.750 288.400,194.200 288.400 C 193.650 288.400,193.200 288.580,193.200 288.800 M138.320 289.680 C 138.693 290.053,138.907 290.053,139.280 289.680 C 139.653 289.307,139.547 289.200,138.800 289.200 C 138.053 289.200,137.947 289.307,138.320 289.680 M191.520 289.680 C 191.893 290.053,192.107 290.053,192.480 289.680 C 192.853 289.307,192.747 289.200,192.000 289.200 C 191.253 289.200,191.147 289.307,191.520 289.680 M140.400 290.000 C 140.400 290.220,140.850 290.400,141.400 290.400 C 141.950 290.400,142.400 290.220,142.400 290.000 C 142.400 289.780,141.950 289.600,141.400 289.600 C 140.850 289.600,140.400 289.780,140.400 290.000 M188.400 290.000 C 188.400 290.220,188.850 290.400,189.400 290.400 C 189.950 290.400,190.400 290.220,190.400 290.000 C 190.400 289.780,189.950 289.600,189.400 289.600 C 188.850 289.600,188.400 289.780,188.400 290.000 M143.200 290.800 C 143.200 291.020,143.560 291.200,144.000 291.200 C 144.440 291.200,144.800 291.020,144.800 290.800 C 144.800 290.580,144.440 290.400,144.000 290.400 C 143.560 290.400,143.200 290.580,143.200 290.800 M185.600 290.800 C 185.600 291.020,186.050 291.200,186.600 291.200 C 187.150 291.200,187.600 291.020,187.600 290.800 C 187.600 290.580,187.150 290.400,186.600 290.400 C 186.050 290.400,185.600 290.580,185.600 290.800 M146.600 291.600 C 146.736 291.820,147.186 292.000,147.600 292.000 C 148.014 292.000,148.464 291.820,148.600 291.600 C 148.745 291.366,148.330 291.200,147.600 291.200 C 146.870 291.200,146.455 291.366,146.600 291.600 M182.000 291.600 C 182.782 292.106,183.888 292.106,184.200 291.600 C 184.348 291.360,183.839 291.202,182.924 291.206 C 181.793 291.211,181.555 291.312,182.000 291.600 M150.000 292.000 C 150.000 292.220,150.810 292.400,151.800 292.400 C 152.790 292.400,153.600 292.220,153.600 292.000 C 153.600 291.780,152.790 291.600,151.800 291.600 C 150.810 291.600,150.000 291.780,150.000 292.000 M177.200 292.000 C 177.200 292.220,178.010 292.400,179.000 292.400 C 179.990 292.400,180.800 292.220,180.800 292.000 C 180.800 291.780,179.990 291.600,179.000 291.600 C 178.010 291.600,177.200 291.780,177.200 292.000 M155.200 292.800 C 155.200 293.039,156.741 293.200,159.024 293.200 C 161.471 293.200,162.758 293.056,162.600 292.800 C 162.464 292.580,160.743 292.400,158.776 292.400 C 156.659 292.400,155.200 292.563,155.200 292.800 M168.000 292.800 C 168.000 293.037,169.467 293.200,171.600 293.200 C 173.733 293.200,175.200 293.037,175.200 292.800 C 175.200 292.563,173.733 292.400,171.600 292.400 C 169.467 292.400,168.000 292.563,168.000 292.800 " stroke="none" fill="#b4b4b4" fill-rule="evenodd"></path><path id="path2" d="M107.170 111.868 L 106.200 112.936 107.287 112.168 C 107.886 111.746,108.381 111.265,108.387 111.100 C 108.408 110.607,108.189 110.746,107.170 111.868 M83.923 135.100 C 83.218 135.921,82.690 136.800,82.901 136.800 C 82.983 136.800,83.449 136.260,83.937 135.600 C 84.901 134.296,84.892 133.972,83.923 135.100 M82.845 250.109 C 83.508 251.384,83.600 251.433,83.600 250.509 C 83.600 250.056,83.326 249.580,82.991 249.452 C 82.479 249.255,82.455 249.360,82.845 250.109 M89.600 258.751 C 89.600 258.944,89.856 259.314,90.169 259.574 C 90.635 259.961,90.698 259.898,90.522 259.223 C 90.312 258.419,89.600 258.055,89.600 258.751 " stroke="none" fill="#cccccc" fill-rule="evenodd"></path><path id="path3" d="M155.905 93.483 C 156.402 93.579,157.122 93.575,157.505 93.475 C 157.887 93.375,157.480 93.296,156.600 93.301 C 155.720 93.305,155.407 93.387,155.905 93.483 M173.700 93.476 C 174.085 93.576,174.715 93.576,175.100 93.476 C 175.485 93.375,175.170 93.293,174.400 93.293 C 173.630 93.293,173.315 93.375,173.700 93.476 M194.500 97.476 C 194.885 97.576,195.200 97.825,195.200 98.029 C 195.200 98.233,195.402 98.400,195.649 98.400 C 195.959 98.400,195.944 98.215,195.600 97.800 C 195.326 97.470,194.809 97.221,194.451 97.246 C 193.902 97.286,193.909 97.321,194.500 97.476 M230.006 117.084 C 230.019 117.729,230.629 118.277,231.600 118.515 C 232.558 118.750,232.566 118.736,231.800 118.194 C 231.360 117.882,230.775 117.434,230.500 117.198 C 230.225 116.962,230.003 116.911,230.006 117.084 M98.984 118.162 C 98.265 118.688,98.285 118.711,99.303 118.516 C 99.901 118.402,100.292 118.149,100.172 117.954 C 99.890 117.499,99.891 117.499,98.984 118.162 M90.013 127.176 C 89.778 127.615,89.752 128.047,89.953 128.171 C 90.149 128.292,90.394 127.943,90.499 127.395 C 90.727 126.200,90.573 126.130,90.013 127.176 M65.324 185.400 C 65.326 186.720,65.401 187.212,65.490 186.493 C 65.579 185.774,65.577 184.694,65.486 184.093 C 65.395 183.492,65.322 184.080,65.324 185.400 M65.328 201.200 C 65.328 202.630,65.401 203.215,65.489 202.500 C 65.578 201.785,65.578 200.615,65.489 199.900 C 65.401 199.185,65.328 199.770,65.328 201.200 M69.246 222.451 C 69.221 222.809,69.470 223.326,69.800 223.600 C 70.215 223.944,70.400 223.959,70.400 223.649 C 70.400 223.402,70.233 223.200,70.029 223.200 C 69.825 223.200,69.576 222.885,69.476 222.500 C 69.321 221.909,69.286 221.902,69.246 222.451 M236.000 264.200 C 235.028 265.190,234.323 266.000,234.433 266.000 C 234.543 266.000,235.428 265.190,236.400 264.200 C 237.372 263.210,238.077 262.400,237.967 262.400 C 237.857 262.400,236.972 263.210,236.000 264.200 M98.400 268.241 C 98.400 268.613,99.982 269.153,100.171 268.847 C 100.292 268.651,99.943 268.406,99.395 268.301 C 98.848 268.197,98.400 268.170,98.400 268.241 M103.600 271.864 C 103.600 272.082,104.095 272.697,104.700 273.230 L 105.800 274.200 104.800 273.000 C 104.250 272.340,103.755 271.725,103.700 271.633 C 103.645 271.542,103.600 271.645,103.600 271.864 M217.309 278.728 C 216.599 279.098,216.014 279.541,216.009 279.714 C 215.999 280.063,216.977 279.584,218.200 278.642 C 219.223 277.854,218.936 277.881,217.309 278.728 M207.200 283.971 C 207.200 284.175,206.885 284.424,206.500 284.524 C 205.909 284.679,205.902 284.714,206.451 284.754 C 206.809 284.779,207.326 284.530,207.600 284.200 C 207.944 283.785,207.959 283.600,207.649 283.600 C 207.402 283.600,207.200 283.767,207.200 283.971 " stroke="none" fill="#dcdcdc" fill-rule="evenodd"></path><path id="path4" d="M146.500 94.676 C 146.885 94.776,147.515 94.776,147.900 94.676 C 148.285 94.575,147.970 94.493,147.200 94.493 C 146.430 94.493,146.115 94.575,146.500 94.676 M183.399 94.680 C 184.058 94.786,184.747 95.081,184.929 95.336 C 185.153 95.649,185.209 95.605,185.100 95.200 C 185.000 94.831,184.412 94.578,183.569 94.544 C 182.315 94.492,182.301 94.503,183.399 94.680 M138.633 96.347 C 137.991 96.486,137.420 96.829,137.363 97.110 C 137.306 97.391,137.351 97.436,137.463 97.210 C 137.575 96.985,138.192 96.800,138.833 96.800 C 139.475 96.800,140.000 96.620,140.000 96.400 C 140.000 96.180,139.955 96.021,139.900 96.047 C 139.845 96.073,139.275 96.208,138.633 96.347 M192.100 96.687 C 192.705 96.778,193.200 97.021,193.200 97.227 C 193.200 97.432,193.402 97.600,193.649 97.600 C 193.959 97.600,193.944 97.415,193.600 97.000 C 193.326 96.670,192.629 96.427,192.051 96.460 L 191.000 96.520 192.100 96.687 M96.175 120.500 L 95.000 121.800 96.300 120.625 C 97.512 119.530,97.784 119.200,97.475 119.200 C 97.406 119.200,96.821 119.785,96.175 120.500 M92.175 124.500 L 91.000 125.800 92.300 124.625 C 93.015 123.979,93.600 123.394,93.600 123.325 C 93.600 123.016,93.270 123.288,92.175 124.500 M89.062 127.931 C 88.698 128.334,88.400 128.811,88.400 128.993 C 88.400 129.174,88.760 128.907,89.200 128.400 C 89.640 127.893,90.000 127.415,90.000 127.339 C 90.000 127.039,89.695 127.232,89.062 127.931 M243.046 129.981 C 243.512 130.542,244.092 131.360,244.334 131.800 C 244.577 132.240,244.781 132.372,244.788 132.094 C 244.795 131.816,244.215 130.998,243.500 130.276 C 242.785 129.554,242.581 129.421,243.046 129.981 M68.623 165.700 C 68.182 167.151,68.114 168.000,68.437 168.000 C 68.637 168.000,68.800 167.475,68.800 166.833 C 68.800 166.192,69.025 165.576,69.300 165.465 C 69.692 165.307,69.689 165.256,69.287 165.232 C 69.006 165.214,68.707 165.425,68.623 165.700 M66.544 211.569 C 66.578 212.412,66.831 213.000,67.200 213.100 C 67.605 213.209,67.649 213.153,67.336 212.929 C 67.081 212.747,66.786 212.058,66.680 211.399 C 66.503 210.301,66.492 210.315,66.544 211.569 M68.460 220.051 C 68.427 220.629,68.670 221.326,69.000 221.600 C 69.415 221.944,69.600 221.959,69.600 221.649 C 69.600 221.402,69.432 221.200,69.227 221.200 C 69.021 221.200,68.778 220.705,68.687 220.100 L 68.520 219.000 68.460 220.051 M70.446 226.451 C 70.421 226.809,70.670 227.326,71.000 227.600 C 71.415 227.944,71.600 227.959,71.600 227.649 C 71.600 227.402,71.433 227.200,71.229 227.200 C 71.025 227.200,70.776 226.885,70.676 226.500 C 70.521 225.909,70.486 225.902,70.446 226.451 M245.329 253.700 C 244.884 254.195,244.376 254.870,244.201 255.200 C 243.863 255.837,243.955 255.750,245.576 253.900 C 246.106 253.295,246.449 252.800,246.339 252.800 C 246.229 252.800,245.775 253.205,245.329 253.700 M241.923 257.900 C 241.218 258.721,240.690 259.600,240.901 259.600 C 240.983 259.600,241.449 259.060,241.937 258.400 C 242.901 257.096,242.892 256.772,241.923 257.900 M230.600 269.444 L 229.000 270.876 230.700 269.604 C 232.163 268.510,232.691 267.983,232.300 268.006 C 232.245 268.009,231.480 268.656,230.600 269.444 M100.959 270.440 C 102.036 271.408,103.206 272.362,103.559 272.560 C 103.911 272.758,103.319 272.128,102.241 271.160 C 101.164 270.192,99.994 269.238,99.641 269.040 C 99.289 268.842,99.881 269.472,100.959 270.440 M226.131 272.936 C 225.509 273.451,224.640 274.075,224.200 274.324 C 223.650 274.635,223.587 274.774,224.000 274.771 C 224.330 274.769,225.305 274.144,226.167 273.383 C 227.919 271.836,227.891 271.479,226.131 272.936 M154.100 292.800 C 154.191 293.138,154.771 293.428,155.431 293.463 C 156.438 293.518,156.461 293.499,155.600 293.323 C 155.050 293.211,154.451 292.912,154.270 292.660 C 154.049 292.352,153.993 292.399,154.100 292.800 " stroke="none" fill="#ececec" fill-rule="evenodd"></path></g></svg>